#!OML:ASF H:\Dans Jumps\Project 1\Capture day 1\Session 1\subject.ASF
:FULLY-SPECIFIED
:DEGREES
469
root 0.288786 18.2325 -7.09064 4.05158 2.08731 -0.124435
lowerback 4.58938 0.610163 -1.29405
upperback 5.25953 0.766639 0.97986
thorax 2.8126 0.322413 1.71773
lowerneck -10.8395 -0.890674 -2.15157
upperneck 31.1846 -1.41969 2.17771
head 12.054 -0.599537 1.00931
rclavicle 8.84592e-015 3.37934e-015
rhumerus -35.2105 12.1002 -89.5877
rradius 97.2061
rwrist 9.85662
rhand -30.7349 -26.1944
rfingers 7.12502
rthumb -4.02715 -56.1361
lclavicle 8.84592e-015 3.37934e-015
lhumerus -49.459 -19.6978 98.218
lradius 106.56
lwrist 41.376
lhand -27.213 -14.4116
lfingers 7.12502
lthumb -0.625853 15.5673
rfemur -23.2676 -3.75166 17.6281
rtibia 32.4205
rfoot 2.97412 0.767211
rtoes 10.0723
lfemur -22.256 6.89408 -18.4067
ltibia 30.0104
lfoot 5.96192 -5.07718
ltoes -1.99972
470
root 0.291085 17.946 -7.00317 3.81037 2.11879 -0.14118
lowerback 4.58963 0.630624 -1.20011
upperback 5.05645 0.795599 1.01275
thorax 2.6008 0.342562 1.69641
lowerneck -10.9803 -0.887778 -2.19412
upperneck 31.1302 -1.39171 2.14678
head 12.0608 -0.594687 1.00817
rclavicle -1.09332e-015 9.93923e-016
rhumerus -35.1317 12.2219 -89.4486
rradius 97.1272
rwrist 9.86444
rhand -30.7059 -26.3523
rfingers 7.12502
rthumb -3.99918 -56.2945
lclavicle -1.09332e-015 9.93923e-016
lhumerus -49.4389 -19.5548 97.9919
lradius 106.52
lwrist 41.3957
lhand -27.435 -14.5305
lfingers 7.12502
lthumb -0.840248 15.4476
rfemur -23.3583 -3.69639 17.6074
rtibia 34.4079
rfoot -2.17641 1.15476
rtoes 7.68481
lfemur -22.2365 6.92374 -18.3965
ltibia 32.1183
lfoot -0.0144787 -4.35167
ltoes -2.43721
471
root 0.292041 17.676 -6.93092 3.50798 2.17031 -0.197409
lowerback 4.81232 0.647389 -1.07658
upperback 4.89385 0.818894 1.06004
thorax 2.30766 0.360665 1.67106
lowerneck -11.2088 -0.884761 -2.20301
upperneck 31.0851 -1.36162 2.08852
head 12.0891 -0.587967 0.991091
rclavicle -2.23633e-015 -5.36719e-015
rhumerus -34.8754 12.2837 -89.3007
rradius 96.8327
rwrist 9.87056
rhand -30.6987 -26.5508
rfingers 7.12502
rthumb -3.99214 -56.4932
lclavicle -2.23633e-015 -5.36719e-015
lhumerus -49.2469 -19.4107 97.7348
lradius 106.338
lwrist 41.2578
lhand -27.7068 -14.6376
lfingers 7.12502
lthumb -1.10275 15.3392
rfemur -23.5299 -3.66687 17.6459
rtibia 36.5367
rfoot -7.00139 0.904603
rtoes 6.35165
lfemur -22.3025 6.89305 -18.3288
ltibia 34.2337
lfoot -5.29974 -3.2082
ltoes -1.73299
472
root 0.292212 17.4299 -6.87316 3.17551 2.22679 -0.29821
lowerback 5.22307 0.657495 -0.922797
upperback 4.77432 0.834134 1.12436
thorax 1.95538 0.375067 1.64448
lowerneck -11.5176 -0.875055 -2.18544
upperneck 31.0497 -1.32119 2.01135
head 12.1376 -0.575692 0.963599
rclavicle 5.76476e-015 -5.76476e-015
rhumerus -34.4449 12.2837 -89.1464
rradius 96.3077
rwrist 9.91517
rhand -30.7044 -26.7857
rfingers 7.12502
rthumb -3.99769 -56.728
lclavicle 5.76476e-015 -5.76476e-015
lhumerus -48.8732 -19.2157 97.4327
lradius 105.993
lwrist 40.9331
lhand -27.9831 -14.7624
lfingers 7.12502
lthumb -1.36958 15.2129
rfemur -23.8226 -3.67714 17.7582
rtibia 38.7166
rfoot -11.1074 0.185263
rtoes 5.74632
lfemur -22.4887 6.82575 -18.2189
ltibia 36.2898
lfoot -9.67586 -1.78925
ltoes -1.273
473
root 0.291942 17.2132 -6.82921 2.91457 2.27758 -0.386452
lowerback 5.72054 0.657493 -0.805356
upperback 4.68262 0.836172 1.19394
thorax 1.58436 0.381268 1.6434
lowerneck -11.9386 -0.853562 -2.14469
upperneck 31.0478 -1.2629 1.91717
head 12.2225 -0.554654 0.928187
rclavicle 5.26779e-015 -1.94809e-014
rhumerus -33.8606 12.213 -88.9883
rradius 95.5694
rwrist 10.039
rhand -30.7052 -27.0832
rfingers 7.12502
rthumb -3.99842 -57.0254
lclavicle 5.26779e-015 -1.94809e-014
lhumerus -48.3127 -18.9174 97.0759
lradius 105.476
lwrist 40.4118
lhand -28.282 -14.8343
lfingers 7.12502
lthumb -1.65825 15.139
rfemur -24.3584 -3.74254 17.8892
rtibia 40.9243
rfoot -14.4133 -0.722617
rtoes 5.46591
lfemur -22.9239 6.75355 -18.1616
ltibia 38.3298
lfoot -13.123 -0.196261
ltoes -1.356
474
root 0.290884 17.0243 -6.79935 2.82824 2.32675 -0.451793
lowerback 6.195 0.649495 -0.735446
upperback 4.60278 0.827343 1.26463
thorax 1.23881 0.380267 1.67121
lowerneck -12.4318 -0.826221 -2.05656
upperneck 31.0312 -1.19332 1.77877
head 12.3161 -0.528738 0.869117
rclavicle 2.80286e-014 -3.97569e-016
rhumerus -33.1642 12.0331 -88.832
rradius 94.6656
rwrist 10.2483
rhand -30.6893 -27.4145
rfingers 7.12502
rthumb -3.9831 -57.357
lclavicle 2.80286e-014 -3.97569e-016
lhumerus -47.5895 -18.4974 96.6708
lradius 104.798
lwrist 39.7099
lhand -28.6124 -14.8392
lfingers 7.12502
lthumb -1.97735 15.1314
rfemur -25.2613 -3.84672 18.0414
rtibia 43.1872
rfoot -16.9489 -1.72239
rtoes 5.27633
lfemur -23.7548 6.66818 -18.1835
ltibia 40.4715
lfoot -15.6511 1.49165
ltoes -1.86278
475
root 0.28919 16.863 -6.78257 2.96784 2.38008 -0.473481
lowerback 6.57332 0.635514 -0.730003
upperback 4.53049 0.808651 1.33139
thorax 0.954442 0.37238 1.73317
lowerneck -12.9666 -0.800789 -1.94226
upperneck 30.973 -1.12351 1.61025
head 12.4015 -0.503796 0.793729
rclavicle 9.54166e-015 1.59028e-015
rhumerus -32.4148 11.7139 -88.6806
rradius 93.6726
rwrist 10.5162
rhand -30.6457 -27.7167
rfingers 7.12502
rthumb -3.94105 -57.66
lclavicle 9.54166e-015 1.59028e-015
lhumerus -46.7403 -17.947 96.2377
lradius 103.975
lwrist 38.8782
lhand -28.9813 -14.8055
lfingers 7.12502
lthumb -2.33362 15.1615
rfemur -26.5755 -3.9648 18.1792
rtibia 45.5422
rfoot -18.6712 -2.71366
rtoes 4.62465
lfemur -25.0576 6.50981 -18.2976
ltibia 42.8215
lfoot -17.2164 3.16485
ltoes -3.00949
476
root 0.286796 16.7282 -6.77769 3.31479 2.46084 -0.461712
lowerback 6.85049 0.617508 -0.765402
upperback 4.47406 0.782864 1.39247
thorax 0.74259 0.359689 1.81422
lowerneck -13.478 -0.787675 -1.81833
upperneck 30.8219 -1.0745 1.44103
head 12.4447 -0.487528 0.712904
rclavicle 3.47873e-015 2.82274e-014
rhumerus -31.6776 11.2337 -88.5474
rradius 92.6874
rwrist 10.7562
rhand -30.6038 -28.0104
rfingers 7.12502
rthumb -3.90054 -57.9545
lclavicle 3.47873e-015 2.82274e-014
lhumerus -45.8098 -17.301 95.8012
lradius 103.034
lwrist 38.004
lhand -29.4122 -14.7557
lfingers 7.12502
lthumb -2.74984 15.2063
rfemur -28.2525 -4.05832 18.2951
rtibia 47.9793
rfoot -19.7012 -3.58152
rtoes 3.74514
lfemur -26.8144 6.24176 -18.4684
ltibia 45.4039
lfoot -18.0282 4.55012
ltoes -4.01346
477
root 0.283897 16.6194 -6.78257 3.76585 2.58697 -0.445582
lowerback 7.09537 0.597774 -0.796889
upperback 4.46421 0.7548 1.45396
thorax 0.59709 0.345353 1.89465
lowerneck -13.9397 -0.801516 -1.74582
upperneck 30.5617 -1.07251 1.33885
head 12.4348 -0.489796 0.659325
rclavicle 1.31198e-014 9.93923e-015
rhumerus -31.0018 10.5974 -88.4315
rradius 91.7992
rwrist 10.8716
rhand -30.5902 -28.3069
rfingers 7.12502
rthumb -3.88736 -58.2511
lclavicle 1.31198e-014 9.93923e-015
lhumerus -44.8476 -16.6105 95.3853
lradius 102.033
lwrist 37.2084
lhand -29.9244 -14.7428
lfingers 7.12502
lthumb -3.24442 15.2123
rfemur -30.1181 -4.12841 18.4015
rtibia 50.408
rfoot -20.1646 -4.2257
rtoes 2.97223
lfemur -28.856 5.87888 -18.6262
ltibia 48.1133
lfoot -18.2595 5.43824
ltoes -4.46462
478
root 0.280835 16.5353 -6.79515 4.19552 2.76875 -0.46271
lowerback 7.40986 0.577063 -0.773308
upperback 4.52268 0.728267 1.52325
thorax 0.48448 0.332192 1.95224
lowerneck -14.3138 -0.845166 -1.73483
upperneck 30.177 -1.12347 1.32017
head 12.358 -0.512131 0.6401
rclavicle 7.85199e-015 1.59028e-015
rhumerus -30.4333 9.84815 -88.3377
rradius 91.0745
rwrist 10.7743
rhand -30.6411 -28.6185
rfingers 7.12502
rthumb -3.93657 -58.5619
lclavicle 7.85199e-015 1.59028e-015
lhumerus -43.9073 -15.9389 95.0065
lradius 101.029
lwrist 36.6393
lhand -30.5234 -14.8116
lfingers 7.12502
lthumb -3.82294 15.1339
rfemur -31.9354 -4.20869 18.5246
rtibia 52.6784
rfoot -20.1978 -4.59714
rtoes 2.44435
lfemur -30.9242 5.4756 -18.6998
ltibia 50.7577
lfoot -18.097 5.79896
ltoes -4.60829
479
root 0.277939 16.4765 -6.81322 4.48825 2.98939 -0.524903
lowerback 7.88218 0.561979 -0.677516
upperback 4.66848 0.713596 1.59939
thorax 0.375765 0.325728 1.97505
lowerneck -14.578 -0.918379 -1.7766
upperneck 29.6744 -1.22827 1.38429
head 12.2134 -0.55402 0.653187
rclavicle -1.16289e-014 4.77083e-015
rhumerus -29.9862 9.05099 -88.2653
rradius 90.5369
rwrist 10.4067
rhand -30.7762 -28.9362
rfingers 7.12502
rthumb -4.067 -58.8771
lclavicle -1.16289e-014 4.77083e-015
lhumerus -43.0381 -15.346 94.6694
lradius 100.092
lwrist 36.4383
lhand -31.2072 -14.9931
lfingers 7.12502
lthumb -4.48319 14.9395
rfemur -33.4581 -4.31649 18.666
rtibia 54.6231
rfoot -19.9583 -4.70407
rtoes 2.27718
lfemur -32.7461 5.1044 -18.6619
ltibia 53.1167
lfoot -17.7131 5.67891
ltoes -4.48289
